<svg width="16" height="16" version="1.0" viewBox="0 0 14.8 11.4" xmlns="http://www.w3.org/2000/svg">
 <path fill="#BFC2C1" d="m6.8 8.56v-4.46l-2.3 3.99c-0.0607 0.102-0.173 0.163-0.305 0.163-0.133 0-0.244-0.0616-0.305-0.163l-2.3-3.99v4.46c0 0.173-0.143 0.305-0.336 0.305-0.182 0-0.334-0.133-0.334-0.305v-5.71c0-0.172 0.152-0.305 0.334-0.305 0.133 0 0.244 0.0607 0.306 0.162l2.63 4.58 2.63-4.58c0.0607-0.102 0.172-0.162 0.304-0.162 0.183 0 0.336 0.133 0.336 0.305v5.71c0 0.173-0.153 0.305-0.336 0.305-0.193-2.21e-4 -0.336-0.133-0.336-0.305zm2.59 0.305c-0.183 0-0.335-0.133-0.335-0.305v-5.6c0-0.172 0.152-0.305 0.335-0.305h4.18c0.193 0 0.346 0.133 0.346 0.305 0 0.174-0.152 0.306-0.346 0.306h-3.84v2.44h3.23c0.193 0 0.345 0.133 0.345 0.305 0 0.172-0.153 0.305-0.345 0.305h-3.23v2.25c0 0.172-0.142 0.305-0.336 0.305z"/>
</svg>
